<?xml version="1.0" encoding="UTF-8"?>
<!--Generator: Apple Native CoreSVG 232.5-->
<!DOCTYPE svg
PUBLIC "-//W3C//DTD SVG 1.1//EN"
       "http://www.w3.org/Graphics/SVG/1.1/DTD/svg11.dtd">
<svg version="1.1" xmlns="http://www.w3.org/2000/svg" xmlns:xlink="http://www.w3.org/1999/xlink" width="60.626" height="60.855">
 <g>
  <rect height="60.855" opacity="0" width="60.626" x="0" y="0"/>
  <path d="M0 24.1091C0 37.3748 10.8342 48.209 24.1167 48.209C29.6553 48.209 34.7468 46.3267 38.8181 43.1538L55.6714 60.0542C56.1606 60.5527 56.8638 60.8474 57.5913 60.8474C59.2324 60.8474 60.2842 59.5945 60.2842 58.104C60.2842 57.3748 60.0273 56.7297 59.5247 56.2178L42.7144 39.3494C46.1482 35.2124 48.2258 29.8843 48.2258 24.1091C48.2258 10.8342 37.3916 0 24.1167 0C10.8342 0 0 10.8342 0 24.1091ZM3.46046 24.1091C3.46046 12.7358 12.7358 3.45289 24.1167 3.45289C35.49 3.45289 44.7485 12.7358 44.7485 24.1091C44.7485 35.4731 35.49 44.7485 24.1167 44.7485C12.7358 44.7485 3.46046 35.4731 3.46046 24.1091Z" fill="#000000" fill-opacity="0.85"/>
 </g>
</svg>
