<?xml version="1.0" standalone="no"?>
<!DOCTYPE svg PUBLIC "-//W3C//DTD SVG 20010904//EN"
 "http://www.w3.org/TR/2001/REC-SVG-20010904/DTD/svg10.dtd">
<svg version="1.0" xmlns="http://www.w3.org/2000/svg"
 width="128.000000pt" height="128.000000pt" viewBox="0 0 128.000000 128.000000"
 preserveAspectRatio="xMidYMid meet">

<g transform="translate(0.000000,128.000000) scale(0.100000,-0.100000)"
fill="#000000" stroke="none">
<path d="M372 1149 c-95 -16 -172 -70 -212 -149 -30 -59 -40 -149 -40 -360 0
-286 16 -354 97 -431 79 -76 142 -89 423 -89 281 0 344 13 423 89 81 77 97
145 97 431 0 286 -16 354 -97 431 -50 49 -87 66 -164 78 -76 13 -452 12 -527
0z m573 -93 c55 -24 91 -61 112 -115 16 -40 18 -81 18 -301 0 -279 -4 -306
-57 -365 -55 -63 -91 -70 -378 -70 -279 0 -306 4 -365 57 -63 55 -70 91 -70
378 0 274 4 304 52 361 58 69 109 78 413 75 198 -2 241 -5 275 -20z"/>
<path d="M507 932 c-12 -13 -17 -37 -17 -80 l0 -62 -63 0 c-50 0 -68 -4 -81
-19 -14 -15 -15 -24 -6 -40 9 -18 20 -21 80 -21 l70 0 0 -70 0 -70 -70 0 c-60
0 -71 -3 -80 -21 -9 -16 -8 -25 6 -40 13 -15 31 -19 81 -19 l63 0 0 -63 c0
-50 4 -68 19 -81 15 -14 24 -15 40 -6 18 9 21 20 21 80 l0 70 70 0 70 0 0 -70
c0 -60 3 -71 21 -80 16 -9 25 -8 40 6 15 13 19 31 19 81 l0 63 63 0 c50 0 68
4 81 19 14 15 15 24 6 40 -9 18 -20 21 -80 21 l-70 0 0 70 0 70 70 0 c60 0 71
3 80 21 9 16 8 25 -6 40 -13 15 -31 19 -81 19 l-63 0 0 63 c0 50 -4 68 -19 81
-15 14 -24 15 -40 6 -18 -9 -21 -20 -21 -80 l0 -70 -70 0 -70 0 0 70 c0 58 -3
71 -19 80 -25 13 -25 13 -44 -8z m198 -292 l0 -65 -65 0 -65 0 -3 54 c-5 80
-2 82 70 79 l63 -3 0 -65z"/>
</g>
</svg>
