<?xml version="1.0" standalone="no"?>
<!DOCTYPE svg PUBLIC "-//W3C//DTD SVG 20010904//EN"
 "http://www.w3.org/TR/2001/REC-SVG-20010904/DTD/svg10.dtd">
<svg version="1.0" xmlns="http://www.w3.org/2000/svg"
 width="512.000000pt" height="512.000000pt" viewBox="0 0 512.000000 512.000000"
 preserveAspectRatio="xMidYMid meet">

<g transform="translate(0.000000,512.000000) scale(0.100000,-0.100000)"
fill="#000000" stroke="none">
<path d="M2055 5109 c-799 -39 -1263 -181 -1563 -479 -351 -349 -492 -940
-492 -2070 0 -1130 141 -1721 492 -2070 281 -280 688 -415 1418 -472 221 -17
1079 -17 1300 0 440 35 734 92 983 191 248 99 446 256 583 461 183 276 279
640 326 1240 17 221 17 1079 0 1300 -47 603 -142 963 -328 1242 -247 371 -664
563 -1376 633 -341 33 -937 44 -1343 24z m188 -1302 c30 -18 56 -44 74 -75
l28 -47 3 -242 4 -243 208 0 208 0 4 243 3 242 28 47 c71 121 234 142 332 44
59 -60 65 -90 65 -350 l0 -226 226 0 c260 0 290 -6 350 -65 98 -98 77 -261
-44 -332 l-47 -28 -242 -3 -243 -4 0 -208 0 -208 243 -4 242 -3 47 -28 c121
-71 142 -234 44 -332 -60 -59 -90 -65 -350 -65 l-226 0 0 -226 c0 -260 -6
-290 -65 -350 -98 -98 -261 -77 -332 44 l-28 47 -3 242 -4 243 -208 0 -208 0
-4 -242 -3 -243 -28 -47 c-49 -84 -149 -124 -244 -97 -59 16 -127 81 -142 135
-6 23 -11 136 -11 267 l0 227 -226 0 c-260 0 -290 6 -350 65 -98 98 -77 261
44 332 l47 28 243 3 242 4 0 208 0 208 -243 4 -244 3 -48 30 c-71 44 -109 118
-102 198 6 70 39 125 99 164 l41 28 249 3 248 3 0 227 c0 130 5 243 11 266 13
47 85 121 131 135 55 17 130 8 181 -22z"/>
<path d="M2350 2560 l0 -210 210 0 210 0 0 210 0 210 -210 0 -210 0 0 -210z"/>
</g>
</svg>
