<?xml version="1.0" standalone="no"?>
<!DOCTYPE svg PUBLIC "-//W3C//DTD SVG 20010904//EN"
 "http://www.w3.org/TR/2001/REC-SVG-20010904/DTD/svg10.dtd">
<svg version="1.0" xmlns="http://www.w3.org/2000/svg"
 width="90.000000pt" height="80.000000pt" viewBox="0 0 90.000000 80.000000"
 preserveAspectRatio="xMidYMid meet">

<g transform="translate(0.000000,80.000000) scale(0.100000,-0.100000)"
fill="#000000" stroke="none">
<path d="M425 698 c-23 -13 -253 -205 -307 -256 -53 -50 -32 -87 25 -42 14 11
28 20 31 20 3 0 6 -74 6 -164 0 -136 3 -167 16 -180 13 -14 51 -16 255 -16
226 0 240 1 259 20 18 18 20 33 20 180 0 88 3 160 7 160 4 0 17 -10 29 -21 24
-23 54 -20 54 4 0 8 -20 31 -45 51 -44 37 -44 37 -47 109 l-3 72 -32 3 c-31 3
-33 2 -33 -31 0 -18 -3 -36 -6 -40 -3 -3 -46 28 -95 69 -50 41 -95 74 -102 74
-7 0 -21 -6 -32 -12z m148 -139 l107 -90 -2 -177 -3 -177 -67 -3 -67 -3 -3 98
-3 98 -82 3 -83 3 0 -101 0 -100 -69 0 c-84 0 -81 -9 -81 198 l0 153 38 33
c137 121 179 155 192 155 8 1 63 -40 123 -90z"/>
</g>
</svg>
