<?xml version="1.0" standalone="no"?>
<!DOCTYPE svg PUBLIC "-//W3C//DTD SVG 20010904//EN"
 "http://www.w3.org/TR/2001/REC-SVG-20010904/DTD/svg10.dtd">
<svg version="1.0" xmlns="http://www.w3.org/2000/svg"
 width="90.000000pt" height="80.000000pt" viewBox="0 0 90.000000 80.000000"
 preserveAspectRatio="xMidYMid meet">

<g transform="translate(0.000000,80.000000) scale(0.100000,-0.100000)"
fill="#000000" stroke="none">
<path d="M425 698 c-23 -13 -253 -205 -307 -256 -35 -33 -41 -62 -13 -62 8 0
86 61 175 136 89 74 168 134 176 132 7 -2 86 -63 174 -136 152 -127 190 -149
190 -109 0 8 -20 31 -45 51 -44 37 -44 37 -47 109 l-3 72 -32 3 c-31 3 -33 2
-33 -31 0 -18 -3 -36 -6 -40 -3 -3 -46 28 -95 69 -50 41 -95 74 -102 74 -7 0
-21 -6 -32 -12z"/>
<path d="M308 472 l-127 -107 -1 -133 c0 -185 -21 -172 274 -172 200 0 237 2
250 16 13 12 16 41 16 154 l0 138 -127 106 c-70 58 -134 106 -143 105 -8 0
-72 -48 -142 -107z m220 -164 c8 -8 12 -46 12 -105 l0 -93 -85 0 -85 0 0 99
c0 70 4 101 13 104 25 11 133 7 145 -5z"/>
</g>
</svg>
