<svg xmlns="http://www.w3.org/2000/svg" width="2116.849" height="2214.339" viewBox="0 0 2116.849 2214.339">
  <g id="Group_198" data-name="Group 198" transform="translate(-538.511 -480.217)">
    <g id="_2d26d3261c62d23a4f6e7c23e8460712" data-name="2d26d3261c62d23a4f6e7c23e8460712" transform="translate(538.511 480.217)">
      <path id="Path_1288" data-name="Path 1288" d="M970.312-564.9c-41.284,13.887-95.329,31.151-120.1,38.657-35.654,10.884-47.289,15.763-55.171,24.771l-10.509,11.259V-411.4c0,43.536-1.126,78.815-2.627,78.815-1.877,0-7.882-7.131-13.886-16.138C733.491-398.261,693.333-449.3,684.7-454.933c-14.262-9.383-27.4-7.881-78.44,9.008-24.77,8.257-75.437,24.77-112.593,36.405s-72.435,23.269-78.44,25.146c-10.509,4.128-27.4,25.521-109.215,138.114-61.926,84.82-58.924,80.316-58.924,96.83.375,19.516,1.126,21.017,49.916,87.447,22.143,30.775,39.408,55.921,37.906,55.921s-34.153-10.133-72.06-22.519S189.291-51.1,184.036-51.1c-18.766,0-21.017,2.627-131.359,153.877-23.269,31.9-44.662,63.8-47.664,70.558C.885,183.471.134,211.994.885,317.457L2.01,448.815l13.511,12.01c10.133,8.632,30.775,17.264,81.818,34.153C176.905,521.25,178.406,515.621,82.7,546.4c-65.679,21.017-75.813,27.4-80.316,48.415-4.5,23.269-2.252,252.209,2.627,266.1C11.769,879.3,139,1056.068,158.89,1074.458c17.64,16.138,34.529,14.637,108.84-10.509,36.405-12.385,66.43-21.393,66.43-20.267s-17.264,25.9-38.657,54.8c-45.788,62.677-48.415,67.181-48.415,83.319,0,15.763,7.882,30.4,38.282,71.309,13.511,18.39,44.662,61.176,69.057,94.578,25.146,34.9,49.166,63.8,55.921,67.931,19.141,11.635,229.69,79.941,247.705,80.692,24.771,1.126,37.156-10.133,81.442-72.81,21.768-30.4,40.534-55.546,42.41-55.921,1.5,0,2.627,33.778,2.627,75.062,0,57.422,1.126,77.689,5.254,85.571,5.63,10.884,25.521,23.645,47.289,30.025,7.131,2.252,55.921,18.015,108.465,34.9,64.178,20.642,100.959,30.4,112.969,30.4,11.635,0,41.66-7.882,86.7-22.519,37.906-12.385,88.573-28.524,112.593-36.03,31.9-9.758,46.914-16.514,58.173-26.272l14.637-12.761,1.876-80.692,1.876-80.692L1375.647,1422c46.163,64.178,58.548,75.437,82.944,74.311,18.39-.75,227.438-68.682,247.33-80.317,7.881-4.879,25.146-24.4,43.161-49.541,16.514-23.269,42.786-59.674,58.549-81.443,56.672-77.314,61.551-85.2,61.551-102.835,0-14.637-4.128-21.768-44.662-77.689-24.4-33.778-44.287-61.926-43.912-62.3.375-.751,31.151,9.008,67.931,21.393,37.156,12.385,72.435,22.519,78.815,22.519,24.771,0,30.4-6.38,138.865-155.754,22.519-31.151,43.161-62.3,45.413-69.433,6-15.763,7.131-240.574,1.5-264.219-5.254-24.02-15.012-29.65-91.951-55.171l-71.309-23.269,68.307-22.894c37.906-12.761,73.186-26.647,78.815-30.775,18.015-13.511,19.516-23.645,19.516-156.5.375-94.953-.751-125.729-4.5-135.112-3-6.756-27.022-41.659-53.294-77.689-26.647-36.03-58.173-79.566-70.558-96.455-25.9-36.78-40.534-49.916-54.8-49.916-5.63,0-42.786,10.884-82.193,23.645-39.783,13.136-72.06,23.269-72.06,22.519,0-1.126,9.008-13.886,19.891-28.524,69.808-93.828,70.559-94.954,70.934-115.6,0-17.264,0-17.64-94.2-146-42.41-58.173-62.677-82.568-72.06-87.072-7.131-3.753-66.054-23.269-130.983-43.911-81.442-25.9-121.6-36.78-128.732-35.279-14.262,3-24.77,13.886-70.183,76.939l-39.408,54.8-1.876-79.566c-1.876-86.7-4.128-94.578-25.521-102.835-40.534-15.763-243.952-79.566-251.833-78.815C1049.878-590.795,1011.6-578.785,970.312-564.9Zm180.149,96.455,90.075,29.274,1.126,118.223.75,117.848L1150.086-76.244l-92.326,126.48L1017.6-4.935c-22.143-30.775-63.428-87.072-91.576-126.1l-51.418-70.183v-120.1c0-93.453,1.126-120.1,4.879-120.1,2.252,0,42.41-12.761,88.949-27.773,46.539-15.388,86.321-28.148,88.2-28.148C1058.885-497.718,1100.92-484.582,1150.461-468.444ZM660.681-343.09c7.131,10.509,37.906,53.294,68.307,94.578l55.546,75.438V-18.822c0,84.82-.751,155-1.877,156.129s-53.294-14.637-115.6-34.9C604.759,81.762,538.7,60.744,520.69,55.115c-38.657-11.635-27.773-.375-114.47-120.1l-60.05-82.944,57.047-78.065,57.047-78.065,88.2-28.9c48.415-16.138,90.45-28.9,93.452-29.274C644.918-362.231,653.55-353.6,660.681-343.09Zm906,9.758,89.7,28.9,57.422,78.44,57.047,78.065-39.783,55.171C1709.3-62.733,1677.4-19.2,1660.884,3.322l-30.775,41.66-42.786,13.136c-52.919,16.889-240.2,77.314-248.456,80.692-6.005,2.252-6.38-10.133-6.38-155.379V-174.2l38.657-52.168c21.017-28.9,51.793-71.309,68.307-94.2,16.514-23.269,31.9-42.035,33.778-42.035C1475.48-362.606,1517.515-349.47,1566.681-333.332Zm-567.094,459c1.5,5.254-44.287,67.181-49.917,67.181-3,0-21.393-5.254-40.158-11.635l-34.9-11.635V-48.1l62.3,85.571C971.063,84.389,999.211,124.172,999.586,125.673Zm242.826-64.553V169.584l-34.9,11.635c-18.766,6.38-37.156,11.635-40.534,11.635-6,0-48.79-55.921-49.916-64.929-.375-3.753,121.225-175.27,124.228-175.27C1242.037-47.345,1242.412,1.445,1242.412,61.119ZM320.274,84.389l108.089,34.9,90.825,124.978c49.916,68.682,91.2,126.48,91.951,127.981.375,1.5-13.886,7.506-31.9,13.511-18.39,5.63-84.82,27.022-148.623,47.664l-115.22,37.531L284.244,461.2c-16.889-5.254-67.556-21.768-112.218-36.03L90.208,398.9V204.863l33.778-46.539c18.766-25.146,44.662-60.8,57.423-78.815s25.146-32.277,27.022-31.526C210.683,48.734,260.975,64.873,320.274,84.389Zm1649.49,41.659,57.047,78.815V398.9l-88.949,28.524c-49.166,15.763-99.833,31.9-112.593,36.03l-22.894,7.506L1686.4,433.428c-63.428-20.642-130.233-42.035-148.248-47.664-18.39-6-33.027-11.635-33.027-12.76,0-1.5,41.284-58.924,91.576-127.981l91.2-124.978,110.341-36.405c60.8-19.891,111.092-36.405,112.218-36.405C1911.591,46.858,1938.238,82.512,1969.764,126.048ZM718.1,213.5l66.805,21.768-1.126,41.659-1.126,41.66-33.778,12.01c-18.39,6.38-36.781,12.01-40.158,12.01-4.128.375-18.766-16.514-39.408-45.413-18.015-25.146-46.163-63.427-61.926-85.2-16.138-22.143-29.274-40.909-29.274-42.035s16.514,3.378,36.78,10.133C634.784,186.473,681.323,201.861,718.1,213.5Zm812.547-31.151c-5.254,6.756-32.652,44.287-61.176,83.694-28.148,39.032-52.919,72.81-54.42,74.687-1.877,1.5-21.017-2.627-42.786-9.383l-39.783-12.385V235.639l72.435-23.644c39.408-12.761,84.07-27.4,98.331-32.277C1539.283,167.708,1541.535,168.083,1530.651,182.345Zm-447.746,56.3c39.783,56.3,52.919,60.425,118.223,39.408l39.407-12.76,1.877,49.166c2.627,68.682,3,69.432,73.186,92.326,20.642,6.756,38.282,12.76,39.032,13.511s-11.635,19.141-27.4,41.284c-38.657,54.8-38.657,60.8,3.378,117.1,13.136,18.015,24.4,33.778,24.4,35.279s-17.264,7.882-38.282,14.262c-47.664,14.637-54.8,18.015-64.553,31.151-6.755,9.383-7.881,16.889-9.007,61.176-.751,27.773-2.627,50.292-4.5,50.292-1.5,0-22.519-6.756-46.539-15.012-55.921-19.141-65.679-17.64-88.573,13.136-8.257,11.259-21.768,30.025-30.4,41.659l-15.388,20.642-24.02-33.027c-45.413-63.052-46.914-63.428-109.215-42.41-24.02,8.257-45.037,15.012-46.914,15.012-1.5,0-3-18.015-3-40.534-.375-47.664-4.128-66.43-15.763-78.065-5.254-4.879-26.272-13.886-52.543-22.143-24.4-7.506-44.287-15.012-44.287-16.889,0-1.5,10.884-18.015,24.4-36.03,25.9-34.9,34.529-54.8,30.4-70.183-1.126-4.879-13.886-25.521-28.524-45.788-14.262-20.642-26.272-38.282-26.272-39.408,0-1.5,14.637-7.131,33.027-12.76,73.936-22.894,76.563-26.272,79.566-96.455l1.877-47.289,39.408,12.385c65.3,21.017,75.813,17.64,114.845-36.03,13.511-18.39,25.9-33.778,27.4-33.778S1070.52,221.752,1082.905,238.641ZM691.081,480.717c11.259,16.138,22.143,31.151,23.645,33.778,3.378,6.005-42.41,68.682-50.292,68.682-6,0-189.907-58.924-197.038-63.052-3-1.877,189.532-67.931,198.915-68.307C668.562,451.818,679.446,464.954,691.081,480.717Zm852.706.751c49.916,16.514,94.954,30.776,99.833,32.277,4.5,1.5,7.131,4.128,5.63,5.63-4.5,4.128-188.406,63.8-196.663,63.8-4.128,0-14.262-10.509-25.521-25.521-31.9-43.161-31.526-36.78-4.5-73.561,12.76-17.64,25.146-32.277,27.022-32.277S1493.87,465.329,1543.787,481.467Zm430.481,139.991,50.667,16.514,1.126,95.329c.751,94.578.751,95.329-7.881,108.465-5.255,7.506-30.776,43.161-57.047,79.19-36.78,50.667-49.541,65.679-55.921,65.3-6.005,0-217.3-68.307-218.431-70.558,0,0-40.909-56.672-91.2-125.729-49.916-68.682-90.075-126.1-88.949-126.855,1.126-1.126,67.931-23.269,149-49.541l147.5-48.04,60.05,19.891C1896.579,596.313,1946.495,612.451,1974.268,621.458ZM415.227,598.564C466.645,615.078,529.7,635.72,555.219,643.6c25.521,8.257,48.79,16.138,51.417,17.64,3.753,1.877-20.642,38.282-86.7,128.732-85.2,117.472-92.7,126.48-107.714,132.109-24.4,9.007-201.917,66.43-205.295,66.43-1.5,0-28.524-35.654-59.674-78.815L90.208,830.882l.751-96.455,1.126-96.455,105.087-34.529c57.8-19.141,109.591-34.529,114.845-34.9C317.647,568.164,364.185,581.675,415.227,598.564Zm332.9,108.089,36.78,12.385-1.126,41.66-1.126,41.659L681.323,835.385c-55.546,18.015-102.46,33.027-103.961,33.027s26.272-39.783,61.551-88.2c35.279-48.79,66.055-87.823,68.307-87.072S727.861,700.273,748.128,706.654Zm728.1,72.06c34.9,47.665,62.677,87.447,61.926,88.2-.751.375-46.914-13.511-102.46-31.9l-101.334-32.652-1.126-41.659-1.126-41.66,38.657-13.136c21.393-7.506,39.408-13.511,40.534-13.511S1441.7,731.049,1476.231,778.713ZM965.058,856.4c5.254,7.506,15.763,22.519,23.269,33.027l13.887,19.141-62.3,85.946c-34.529,47.289-63.052,86.7-63.8,87.447s-1.5-47.289-1.5-106.964V866.536L911.388,854.9c19.891-6.756,38.282-12.01,40.158-12.385C953.8,842.516,959.8,848.521,965.058,856.4ZM1203,854.526l37.531,12.01,1.126,108.84c.375,61.926-.375,106.964-2.252,105.087-1.877-2.252-30.776-41.284-64.178-87.447l-60.8-83.694,6.756-10.133c14.262-21.768,40.534-56.672,42.41-57.047C1164.723,842.141,1182.363,847.771,1203,854.526ZM784.533,1053.441v155L715.476,1303.4c-38.282,52.168-69.808,95.329-70.558,96.079s-42.785-12.385-93.077-29.274l-91.951-30.775-57.047-78.44L345.8,1182.923l30.775-42.035c16.514-22.894,47.664-65.3,68.682-94.2l37.906-52.544,144.119-47.289c79.19-26.272,147.122-47.664,150.875-48.04C784.158,898.438,784.533,908.2,784.533,1053.441Zm708.211-105.087,139.616,45.413,31.151,42.785c17.264,23.645,47.664,65.679,67.931,93.828,20.267,27.773,36.03,52.919,34.9,55.546-3,7.506-106.964,150.875-111.843,153.877-10.884,6.755-181.275,61.176-183.527,58.548-1.5-1.5-33.027-44.662-70.558-96.08l-67.931-93.452V897.687L1343,900.314C1348.625,901.44,1415.806,923.208,1492.744,948.354Zm-340.782,165.887,90.45,123.852v236.821l-91.951,30.4-91.576,30.4-92.326-30.025-91.951-29.65V1238.094l38.657-53.294c102.835-142.243,142.993-196.288,145.621-195.537C1060.387,990.013,1102.421,1045.935,1151.962,1114.241Z" transform="translate(0.049 590.802)"/>
    </g>
  </g>
</svg>
