<?xml version="1.0" standalone="no"?>
<!DOCTYPE svg PUBLIC "-//W3C//DTD SVG 20010904//EN"
 "http://www.w3.org/TR/2001/REC-SVG-20010904/DTD/svg10.dtd">
<svg version="1.0" xmlns="http://www.w3.org/2000/svg"
 width="114.000000pt" height="137.000000pt" viewBox="0 0 114.000000 137.000000"
 preserveAspectRatio="xMidYMid meet">

<g transform="translate(0.000000,137.000000) scale(0.100000,-0.100000)"
fill="#000000" stroke="none">
<path d="M499 1120 c-116 -61 -160 -201 -99 -320 85 -168 304 -156 378 20 20
48 19 148 -3 191 -56 111 -180 160 -276 109z"/>
<path d="M435 561 c-82 -24 -132 -51 -192 -105 -96 -86 -134 -215 -76 -253 24
-16 62 -18 373 -21 190 -2 369 -1 398 3 97 12 116 64 61 173 -49 99 -149 172
-280 207 -73 20 -210 18 -284 -4z"/>
</g>
</svg>
