<?xml version="1.0" standalone="no"?>
<!DOCTYPE svg PUBLIC "-//W3C//DTD SVG 20010904//EN"
 "http://www.w3.org/TR/2001/REC-SVG-20010904/DTD/svg10.dtd">
<svg version="1.0" xmlns="http://www.w3.org/2000/svg"
 width="118.000000pt" height="137.000000pt" viewBox="0 0 118.000000 137.000000"
 preserveAspectRatio="xMidYMid meet">

<g transform="translate(0.000000,137.000000) scale(0.100000,-0.100000)"
fill="#000000" stroke="none">
<path d="M536 1148 c-59 -16 -130 -92 -150 -159 -20 -65 -20 -92 -1 -155 48
-162 232 -222 355 -116 145 123 106 367 -69 427 -50 17 -79 18 -135 3z m134
-100 c121 -83 70 -298 -69 -298 -76 0 -135 71 -136 160 0 125 113 200 205 138z"/>
<path d="M480 584 c-138 -29 -260 -116 -314 -222 -27 -53 -34 -118 -16 -152
19 -36 61 -40 452 -40 416 0 438 3 459 57 22 59 -33 179 -115 249 -58 50 -170
102 -246 114 -85 13 -140 12 -220 -6z m261 -93 c113 -36 229 -140 229 -208 l0
-23 -370 0 c-411 0 -388 -5 -351 68 17 33 67 86 113 121 10 7 48 23 85 36 89
31 205 33 294 6z"/>
</g>
</svg>
