<?xml version="1.0" standalone="no"?>
<!DOCTYPE svg PUBLIC "-//W3C//DTD SVG 20010904//EN"
 "http://www.w3.org/TR/2001/REC-SVG-20010904/DTD/svg10.dtd">
<svg version="1.0" xmlns="http://www.w3.org/2000/svg"
 width="557.000000pt" height="610.000000pt" viewBox="0 0 557.000000 610.000000"
 preserveAspectRatio="xMidYMid meet">

<g transform="translate(0.000000,610.000000) scale(0.100000,-0.100000)"
fill="#000000" stroke="none">
<path d="M2685 5350 c-436 -30 -810 -158 -1180 -404 -255 -169 -513 -427 -676
-676 -215 -327 -348 -693 -388 -1062 -16 -142 -13 -434 4 -578 117 -946 804
-1752 1720 -2020 426 -124 924 -126 1346 -5 653 188 1210 657 1508 1269 170
348 243 667 243 1061 0 187 -9 291 -38 450 -134 738 -648 1404 -1339 1735
-297 141 -547 206 -890 230 -144 10 -153 10 -310 0z m-307 -1445 c20 -9 351
-201 736 -428 752 -443 741 -436 753 -525 7 -53 -10 -102 -50 -139 -33 -33
-1342 -808 -1435 -851 -65 -30 -124 -26 -177 9 -69 47 -66 -8 -63 971 3 865 3
884 23 910 44 61 138 84 213 53z"/>
</g>
</svg>
