<?xml version="1.0" standalone="no"?>
<!DOCTYPE svg PUBLIC "-//W3C//DTD SVG 20010904//EN"
 "http://www.w3.org/TR/2001/REC-SVG-20010904/DTD/svg10.dtd">
<svg version="1.0" xmlns="http://www.w3.org/2000/svg"
 width="557.000000pt" height="610.000000pt" viewBox="0 0 557.000000 610.000000"
 preserveAspectRatio="xMidYMid meet">

<g transform="translate(0.000000,610.000000) scale(0.100000,-0.100000)"
fill="#000000" stroke="none">
<path d="M2680 5349 c-499 -34 -957 -214 -1351 -531 -492 -395 -807 -958 -884
-1578 -17 -144 -20 -436 -4 -578 88 -813 602 -1540 1344 -1902 244 -119 434
-179 700 -220 200 -31 522 -31 720 0 270 42 456 100 700 220 551 269 973 727
1198 1300 110 280 158 546 158 875 0 401 -70 710 -241 1060 -118 241 -267 452
-450 635 -204 205 -419 360 -664 479 -308 151 -558 217 -911 241 -145 10 -153
10 -315 -1z m356 -440 c443 -43 855 -232 1182 -544 479 -456 694 -1112 581
-1774 -106 -625 -509 -1157 -1092 -1442 -278 -136 -552 -199 -862 -199 -613 0
-1185 282 -1570 775 -608 777 -536 1907 165 2605 315 314 725 520 1135 569
186 23 306 25 461 10z"/>
<path d="M2245 3861 c-23 -10 -50 -31 -60 -47 -19 -28 -20 -52 -20 -879 0
-961 -5 -898 78 -936 57 -25 102 -23 163 9 148 78 1342 792 1369 819 57 55 56
160 -2 215 -29 27 -1308 788 -1378 819 -51 24 -99 23 -150 0z"/>
</g>
</svg>
